<svg width="180" height="180" viewBox="0 0 180 180" fill="none" xmlns="http://www.w3.org/2000/svg">
<g clip-path="url(#clip0_55_1292)">
<path d="M180 0H0V180H180V0Z" fill="#4E2A9A"/>
<path d="M98.8777 45.1319C97.9354 43.5666 96.6046 42.2714 95.0148 41.3722C93.425 40.473 91.63 40 89.804 40C87.9779 40 86.1829 40.473 84.5931 41.3722C83.0033 42.2714 81.6725 43.5666 80.7302 45.1319L65.8038 70.7218C77.2069 76.4203 86.9226 85.0056 93.986 95.6252C101.049 106.245 105.215 118.528 106.069 131.258H95.5885C94.7361 120.346 91.0522 109.848 84.9011 100.799C78.7501 91.7505 70.3452 84.4672 60.5183 79.6679L46.7035 103.579C52.2278 106.059 57.0407 109.888 60.6994 114.718C64.3581 119.547 66.7452 125.219 67.6412 131.213H43.573C43.2875 131.192 43.0116 131.101 42.77 130.947C42.5285 130.793 42.329 130.583 42.1894 130.332C42.0499 130.082 41.9748 129.801 41.9707 129.515C41.9667 129.229 42.034 128.946 42.1665 128.692L48.8358 117.339C46.5762 115.451 43.9939 113.989 41.2138 113.024L34.6126 124.378C33.9254 125.557 33.4792 126.862 33.3001 128.217C33.121 129.57 33.2124 130.946 33.5691 132.265C33.9258 133.583 34.5406 134.817 35.3779 135.895C36.2151 136.974 37.2581 137.875 38.4463 138.547C40.0117 139.429 41.7761 139.898 43.573 139.909H76.5335C77.1456 132.348 75.7967 124.756 72.6173 117.87C69.4379 110.985 64.5359 105.037 58.3859 100.604L63.626 91.5213C71.3874 96.857 77.6246 104.127 81.722 112.612C85.8195 121.097 87.6356 130.507 86.991 139.909H114.915C115.566 125.665 112.471 111.5 105.938 98.829C99.4054 86.1573 89.6652 75.4246 77.6904 67.7024L88.2841 49.5371C88.5201 49.1412 88.9028 48.8544 89.349 48.7394C89.795 48.6243 90.2684 48.6906 90.666 48.9237C91.8683 49.582 136.693 127.874 137.532 128.782C137.68 129.048 137.755 129.348 137.75 129.651C137.745 129.956 137.66 130.253 137.504 130.513C137.347 130.773 137.125 130.987 136.859 131.135C136.593 131.281 136.293 131.355 135.99 131.348H125.191C125.328 134.24 125.328 137.124 125.191 140H136.035C137.412 140.009 138.777 139.744 140.051 139.222C141.325 138.699 142.483 137.928 143.458 136.955C144.432 135.982 145.205 134.824 145.729 133.55C146.254 132.276 146.521 130.91 146.515 129.532C146.516 127.711 146.031 125.924 145.108 124.355L98.8777 45.1319Z" fill="white"/>
</g>
<defs>
<clipPath id="clip0_55_1292">
<rect width="180" height="180" fill="white"/>
</clipPath>
</defs>
</svg>
