<svg width="180" height="180" viewBox="0 0 180 180" fill="none" xmlns="http://www.w3.org/2000/svg">
<path d="M180 0H0V180H180V0Z" fill="#95BF47"/>
<path transform="translate(-199.606 -37.669) scale(5.64)" fill="#fff" d="m56.33 14.66-1.01 3.73s-1.12-.51-2.48-.42c-1.98.12-2 1.34-1.98 1.66.12 1.67 4.58 2.04 4.83 5.94.2 3.08-1.67 5.18-4.34 5.35-3.22.2-4.98-1.66-4.98-1.66l.68-2.83s1.78 1.31 3.2 1.23c.92-.05 1.25-.8 1.21-1.33-.13-2.17-3.77-2.06-4-5.62-.2-3 1.82-6.05 6.25-6.34 1.75-.15 2.62.29 2.62.29"/>
</svg>
